<svg width="56" height="56" viewBox="0 0 56 56" fill="none" xmlns="http://www.w3.org/2000/svg">
<g clip-path="url(#clip0_331_105)">
<path d="M9.33327 25.6666C9.92799 25.6673 10.5 25.895 10.9325 26.3033C11.3649 26.7115 11.6252 27.2695 11.66 27.8632C11.6949 28.4569 11.5017 29.0415 11.12 29.4976C10.7383 29.9536 10.1968 30.2467 9.60627 30.317L9.33327 30.3333H6.99994C6.40522 30.3326 5.8332 30.1049 5.40075 29.6966C4.96829 29.2884 4.70806 28.7304 4.6732 28.1367C4.63835 27.543 4.83151 26.9584 5.21322 26.5024C5.59493 26.0463 6.13638 25.7532 6.72694 25.683L6.99994 25.6666H9.33327Z" fill="url(#paint0_linear_331_105)" fill-opacity="0.6"/>
<path d="M28.0001 4.66663C28.5716 4.6667 29.1232 4.87652 29.5503 5.2563C29.9774 5.63607 30.2502 6.15937 30.3171 6.72696L30.3334 6.99996V9.33329C30.3328 9.92801 30.105 10.5 29.6968 10.9325C29.2885 11.3649 28.7305 11.6252 28.1368 11.66C27.5431 11.6949 26.9585 11.5017 26.5025 11.12C26.0464 10.7383 25.7533 10.1969 25.6831 9.60629L25.6667 9.33329V6.99996C25.6667 6.38112 25.9126 5.78763 26.3502 5.35004C26.7878 4.91246 27.3812 4.66663 28.0001 4.66663Z" fill="url(#paint1_linear_331_105)" fill-opacity="0.6"/>
<path d="M49 25.6666C49.5947 25.6673 50.1668 25.895 50.5992 26.3033C51.0317 26.7115 51.2919 27.2695 51.3268 27.8632C51.3616 28.4569 51.1684 29.0415 50.7867 29.4976C50.405 29.9536 49.8636 30.2467 49.273 30.317L49 30.3333H46.6667C46.072 30.3326 45.4999 30.1049 45.0675 29.6966C44.635 29.2884 44.3748 28.7304 44.34 28.1367C44.3051 27.543 44.4983 26.9584 44.88 26.5024C45.2617 26.0463 45.8031 25.7532 46.3937 25.683L46.6667 25.6666H49Z" fill="url(#paint2_linear_331_105)" fill-opacity="0.6"/>
<path d="M11.4171 11.417C11.8188 11.0152 12.3534 10.7739 12.9205 10.7382C13.4875 10.7026 14.0481 10.8751 14.4971 11.2233L14.7164 11.417L16.3497 13.0503C16.7682 13.4702 17.0112 14.0337 17.0293 14.6262C17.0473 15.2188 16.8392 15.796 16.4471 16.2406C16.0551 16.6853 15.5084 16.964 14.9183 17.0202C14.3281 17.0765 13.7387 16.9059 13.2697 16.5433L13.0504 16.3497L11.4171 14.7163C10.9796 14.2788 10.7339 13.6854 10.7339 13.0667C10.7339 12.4479 10.9796 11.8546 11.4171 11.417Z" fill="url(#paint3_linear_331_105)" fill-opacity="0.6"/>
<path d="M41.2837 11.4169C41.7036 10.9985 42.267 10.7555 42.8596 10.7374C43.4521 10.7193 44.0294 10.9275 44.474 11.3195C44.9187 11.7116 45.1974 12.2582 45.2536 12.8484C45.3098 13.4385 45.1393 14.028 44.7767 14.4969L44.583 14.7163L42.9497 16.3496C42.5298 16.7681 41.9663 17.0111 41.3738 17.0291C40.7812 17.0472 40.204 16.8391 39.7594 16.447C39.3147 16.055 39.036 15.5083 38.9798 14.9182C38.9235 14.328 39.0941 13.7386 39.4567 13.2696L39.6504 13.0503L41.2837 11.4169Z" fill="url(#paint4_linear_331_105)" fill-opacity="0.6"/>
<path d="M32.6667 42C33.2855 42 33.879 42.2458 34.3166 42.6834C34.7542 43.121 35 43.7145 35 44.3333C35 46.1898 34.2625 47.9703 32.9497 49.2831C31.637 50.5958 29.8565 51.3333 28 51.3333C26.1435 51.3333 24.363 50.5958 23.0503 49.2831C21.7375 47.9703 21 46.1898 21 44.3333C21.0001 43.7618 21.2099 43.2102 21.5897 42.7831C21.9694 42.3561 22.4927 42.0832 23.0603 42.0163L23.3333 42H32.6667Z" fill="url(#paint5_linear_331_105)" fill-opacity="0.6"/>
<path d="M28 14C30.9384 14 33.8022 14.9245 36.1859 16.6426C38.5697 18.3607 40.3524 20.7852 41.2816 23.5728C42.2108 26.3604 42.2393 29.3696 41.3632 32.1743C40.4871 34.979 38.7507 37.437 36.4 39.2C36.0784 39.4416 35.6998 39.5959 35.301 39.648L35 39.6667H21C20.4951 39.6667 20.0039 39.5029 19.6 39.2C17.2493 37.437 15.5129 34.979 14.6368 32.1743C13.7607 29.3696 13.7892 26.3604 14.7184 23.5728C15.6476 20.7852 17.4303 18.3607 19.8141 16.6426C22.1978 14.9245 25.0616 14 28 14Z" fill="url(#paint6_linear_331_105)" fill-opacity="0.6"/>
</g>
<defs>
<linearGradient id="paint0_linear_331_105" x1="5.34687" y1="25.9829" x2="5.34687" y2="30.6496" gradientUnits="userSpaceOnUse">
<stop stop-color="#E65C00"/>
<stop offset="0.5" stop-color="#BB554B"/>
<stop offset="1" stop-color="#904E95"/>
</linearGradient>
<linearGradient id="paint1_linear_331_105" x1="26.1189" y1="5.1409" x2="26.1189" y2="12.1383" gradientUnits="userSpaceOnUse">
<stop stop-color="#E65C00"/>
<stop offset="0.5" stop-color="#BB554B"/>
<stop offset="1" stop-color="#904E95"/>
</linearGradient>
<linearGradient id="paint2_linear_331_105" x1="45.0136" y1="25.9829" x2="45.0136" y2="30.6496" gradientUnits="userSpaceOnUse">
<stop stop-color="#E65C00"/>
<stop offset="0.5" stop-color="#BB554B"/>
<stop offset="1" stop-color="#904E95"/>
</linearGradient>
<linearGradient id="paint3_linear_331_105" x1="11.3439" y1="11.1604" x2="11.3439" y2="17.4576" gradientUnits="userSpaceOnUse">
<stop stop-color="#E65C00"/>
<stop offset="0.5" stop-color="#BB554B"/>
<stop offset="1" stop-color="#904E95"/>
</linearGradient>
<linearGradient id="paint4_linear_331_105" x1="39.5791" y1="11.1629" x2="39.5791" y2="17.4568" gradientUnits="userSpaceOnUse">
<stop stop-color="#E65C00"/>
<stop offset="0.5" stop-color="#BB554B"/>
<stop offset="1" stop-color="#904E95"/>
</linearGradient>
<linearGradient id="paint5_linear_331_105" x1="22.3564" y1="42.6326" x2="22.3564" y2="51.9659" gradientUnits="userSpaceOnUse">
<stop stop-color="#E65C00"/>
<stop offset="0.5" stop-color="#BB554B"/>
<stop offset="1" stop-color="#904E95"/>
</linearGradient>
<linearGradient id="paint6_linear_331_105" x1="16.7127" y1="15.7396" x2="16.7127" y2="41.4063" gradientUnits="userSpaceOnUse">
<stop stop-color="#E65C00"/>
<stop offset="0.5" stop-color="#BB554B"/>
<stop offset="1" stop-color="#904E95"/>
</linearGradient>
<clipPath id="clip0_331_105">
<rect width="56" height="56" fill="white"/>
</clipPath>
</defs>
</svg>
